<?xml version="1.0" standalone="no"?>
<!DOCTYPE svg PUBLIC "-//W3C//DTD SVG 20010904//EN"
 "http://www.w3.org/TR/2001/REC-SVG-20010904/DTD/svg10.dtd">
<svg version="1.0" xmlns="http://www.w3.org/2000/svg"
 width="782.000000pt" height="782.000000pt" viewBox="0 0 782.000000 782.000000"
 preserveAspectRatio="xMidYMid meet">

<g transform="translate(0.000000,782.000000) scale(0.100000,-0.100000)"
fill="#000000" stroke="none">
<path d="M4181 7312 c-19 -9 -43 -29 -53 -43 -12 -16 -174 -638 -451 -1736
-238 -941 -434 -1714 -437 -1716 -3 -3 -167 445 -364 996 -198 551 -367 1014
-377 1028 -54 78 -198 76 -240 -3 -7 -13 -171 -531 -364 -1153 l-352 -1130
-561 -5 c-547 -5 -561 -5 -589 -26 -82 -60 -82 -188 0 -248 28 -21 39 -21 638
-24 405 -2 623 1 649 8 85 23 68 -23 399 1041 167 536 306 977 310 982 4 4
162 -424 350 -950 429 -1197 395 -1107 437 -1139 43 -33 107 -42 157 -20 29
11 42 26 56 58 10 24 200 764 422 1645 244 966 407 1596 411 1585 4 -9 187
-1050 408 -2312 221 -1262 406 -2309 411 -2327 29 -92 170 -122 236 -51 12 13
178 349 370 748 l350 725 664 5 c477 4 670 8 684 17 11 6 31 23 45 38 22 23
25 36 25 95 0 62 -3 72 -29 99 -17 17 -46 36 -65 41 -22 6 -301 10 -726 10
-723 -1 -737 -2 -784 -44 -10 -9 -142 -273 -292 -586 -187 -389 -276 -563
-281 -552 -4 9 -199 1112 -433 2450 -293 1674 -431 2441 -442 2459 -33 51
-120 67 -182 35z"/>
</g>
</svg>
