<?xml version="1.0" standalone="no"?>
<!DOCTYPE svg PUBLIC "-//W3C//DTD SVG 20010904//EN"
 "http://www.w3.org/TR/2001/REC-SVG-20010904/DTD/svg10.dtd">
<svg version="1.0" xmlns="http://www.w3.org/2000/svg"
 width="1042.000000pt" height="1042.000000pt" viewBox="0 0 1042.000000 1042.000000"
 preserveAspectRatio="xMidYMid meet">

<g transform="translate(0.000000,1042.000000) scale(0.100000,-0.100000)"
fill="#000000" stroke="none">
<path d="M4956 9582 c-15 -17 -16 -52 -14 -338 l3 -319 28 -9 c17 -6 37 -6 55
0 l27 9 5 218 5 217 59 -111 c56 -107 59 -110 89 -107 28 3 37 13 85 98 29 52
58 100 64 105 7 7 8 -51 4 -196 -6 -183 -5 -208 9 -223 21 -20 79 -21 95 -1
10 12 14 95 18 324 5 305 4 309 -17 330 -28 28 -73 27 -105 -1 -14 -13 -53
-74 -87 -135 -33 -62 -65 -111 -69 -108 -5 3 -34 53 -66 112 -32 59 -68 118
-80 130 -29 29 -84 31 -108 5z"/>
<path d="M4495 9539 c-173 -33 -195 -41 -195 -69 0 -52 112 -616 125 -629 13
-13 38 -11 192 18 98 19 186 38 196 43 9 5 17 19 17 32 0 13 -8 33 -17 45
l-18 21 -130 -25 c-71 -14 -135 -25 -141 -25 -5 0 -16 33 -22 73 -7 39 -15 82
-18 93 -5 20 1 23 63 34 90 17 103 24 103 60 0 44 -23 51 -110 34 -40 -7 -74
-13 -75 -11 -6 7 -36 180 -32 183 2 3 67 17 143 32 136 26 139 28 142 54 5 41
-14 68 -46 67 -15 0 -94 -14 -177 -30z"/>
<path d="M6095 9456 c-64 -30 -105 -94 -105 -167 0 -64 22 -101 113 -183 93
-85 112 -118 95 -166 -28 -80 -155 -63 -221 31 -32 45 -44 47 -81 18 -87 -69
71 -209 236 -209 135 0 219 115 192 261 -5 26 -32 59 -110 136 -58 56 -104
110 -104 120 0 80 117 93 206 23 44 -36 73 -35 93 2 24 43 3 73 -75 110 -79
37 -189 48 -239 24z"/>
<path d="M3850 9355 c-98 -31 -171 -129 -155 -212 8 -43 104 -314 128 -360 26
-49 81 -91 131 -98 132 -20 286 86 286 198 0 33 -45 172 -66 205 -19 29 -27
28 -124 -9 -85 -33 -96 -43 -86 -83 8 -32 28 -38 77 -21 23 8 43 15 45 15 2 0
10 -24 19 -54 24 -83 -4 -129 -88 -143 -57 -9 -84 27 -146 197 -29 80 -53 160
-54 179 -1 47 48 91 103 91 41 0 60 -13 91 -60 15 -22 19 -23 54 -15 65 17 72
62 18 126 -49 58 -135 74 -233 44z"/>
<path d="M6641 9238 c-15 -35 -77 -164 -135 -287 -75 -156 -106 -231 -102
-246 7 -26 55 -50 83 -41 11 4 40 53 77 131 32 69 63 125 68 125 4 0 49 -20
98 -45 l89 -45 -55 -117 c-31 -65 -58 -125 -61 -135 -7 -25 32 -58 70 -58 l33
0 137 288 c75 158 137 293 137 300 0 15 -58 52 -83 52 -12 0 -33 -31 -71 -109
-30 -60 -56 -116 -58 -123 -4 -9 -30 -1 -97 32 -51 25 -95 48 -97 51 -2 4 22
60 52 125 l57 118 -27 23 c-15 13 -40 23 -56 23 -27 0 -33 -7 -59 -62z"/>
<path d="M3363 9140 c-18 -11 -33 -26 -33 -34 0 -7 67 -139 148 -292 135 -253
151 -279 176 -282 34 -4 76 22 76 47 0 10 -67 144 -148 297 -108 202 -154 280
-168 282 -10 1 -34 -7 -51 -18z"/>
<path d="M3035 8921 c-43 -11 -68 -25 -177 -103 -61 -44 -98 -77 -98 -88 0
-16 314 -464 363 -518 14 -15 27 -20 41 -16 21 6 66 49 66 62 0 4 -34 54 -75
112 -69 97 -73 105 -58 122 30 34 49 30 182 -37 72 -36 142 -65 156 -65 29 0
58 38 53 72 -2 18 -27 36 -120 83 -64 33 -119 63 -122 66 -4 3 1 22 9 42 21
50 19 84 -9 142 -27 60 -81 110 -133 124 -21 6 -40 10 -43 10 -3 -1 -18 -4
-35 -8z m61 -130 c17 -10 39 -35 48 -56 15 -31 16 -41 5 -67 -11 -27 -107
-109 -126 -108 -9 1 -113 146 -113 159 0 10 80 68 112 80 33 14 39 13 74 -8z"/>
<path d="M7266 8878 c-38 -23 -221 -259 -261 -338 -44 -85 -7 -192 88 -255
100 -65 181 -66 252 -4 43 38 219 282 241 334 35 85 -4 177 -102 242 -47 31
-66 38 -118 40 -49 3 -68 -1 -100 -19z m159 -108 c42 -26 62 -72 48 -109 -14
-37 -189 -277 -215 -296 -46 -31 -115 -7 -143 51 -20 44 -13 61 90 204 123
172 153 192 220 150z"/>
<path d="M7617 8317 c-125 -122 -227 -229 -227 -238 0 -21 48 -69 69 -69 8 0
53 37 98 82 l83 82 62 -61 c76 -73 116 -95 178 -95 57 0 93 18 150 74 73 73
90 151 49 230 -29 57 -186 218 -213 218 -14 -1 -101 -79 -249 -223z m363 -64
c0 -29 -8 -44 -44 -79 -35 -36 -50 -44 -80 -44 -31 0 -46 9 -92 52 l-55 52 83
83 83 84 53 -56 c43 -46 52 -62 52 -92z"/>
<path d="M2497 8486 c-131 -48 -211 -197 -162 -300 24 -50 273 -292 325 -315
55 -25 73 -26 133 -5 63 21 150 114 166 178 23 91 -8 144 -171 297 -161 151
-209 175 -291 145z m80 -119 c46 -26 262 -244 269 -272 15 -61 -61 -136 -122
-121 -17 5 -77 56 -156 134 -113 112 -128 131 -128 160 0 44 14 69 53 92 37
23 53 24 84 7z"/>
<path d="M5368 7225 c-15 -8 -31 -29 -37 -47 -5 -18 -112 -440 -237 -938 -125
-498 -230 -908 -234 -913 -3 -4 -94 237 -200 535 -221 617 -224 623 -303 587
-14 -6 -30 -22 -35 -34 -9 -20 -358 -1132 -381 -1215 l-7 -25 -313 -5 -313 -5
-19 -24 c-24 -30 -24 -72 0 -102 l19 -24 350 -3 350 -3 26 23 c22 19 52 107
191 552 90 290 166 531 169 534 3 2 8 -1 11 -9 2 -8 92 -259 200 -559 205
-573 213 -590 271 -590 39 0 69 38 88 115 87 355 418 1664 424 1678 5 11 94
-477 230 -1255 212 -1210 224 -1274 248 -1295 14 -13 36 -23 49 -23 52 0 66
25 392 713 l56 117 364 0 364 0 24 25 c33 32 34 83 2 113 -23 22 -26 22 -423
22 -331 0 -403 -2 -420 -14 -11 -8 -88 -154 -170 -325 -119 -248 -150 -306
-156 -288 -4 12 -64 346 -133 742 -69 396 -171 977 -225 1290 -55 314 -104
586 -110 606 -6 23 -19 40 -35 47 -33 15 -44 15 -77 -3z"/>
<path d="M1791 4316 c-21 -25 -9 -69 21 -80 50 -17 89 42 52 78 -19 20 -58 21
-73 2z"/>
<path d="M8552 4318 c-20 -20 -14 -56 13 -74 23 -15 27 -15 50 0 44 29 28 86
-25 86 -14 0 -31 -5 -38 -12z"/>
<path d="M1953 4009 c-48 -18 -36 -89 16 -89 35 0 53 20 49 56 -3 31 -32 45
-65 33z"/>
<path d="M8412 4008 c-7 -7 -12 -24 -12 -38 0 -32 17 -50 45 -50 25 0 55 29
55 52 0 36 -62 62 -88 36z"/>
<path d="M2130 3712 c-21 -7 -30 -23 -30 -55 0 -53 78 -60 95 -7 12 38 -26 75
-65 62z"/>
<path d="M8235 3700 c-24 -27 -13 -68 22 -76 34 -9 57 6 61 42 6 49 -49 72
-83 34z"/>
<path d="M8040 3420 c-24 -24 -25 -43 -4 -64 18 -19 55 -21 72 -4 17 17 15 54
-4 72 -21 21 -40 20 -64 -4z"/>
<path d="M2312 3418 c-7 -7 -12 -25 -12 -40 0 -40 39 -58 75 -34 27 18 31 36
15 67 -12 22 -59 26 -78 7z"/>
<path d="M7824 3170 c-25 -10 -34 -37 -23 -68 15 -39 99 -21 99 22 0 33 -42
58 -76 46z"/>
<path d="M2542 3158 c-7 -7 -12 -24 -12 -40 0 -50 66 -62 91 -17 23 43 -44 92
-79 57z"/>
<path d="M7579 2933 c-23 -5 -38 -43 -28 -70 12 -34 75 -33 90 1 19 41 -15 79
-62 69z"/>
<path d="M2792 2918 c-7 -7 -12 -25 -12 -40 0 -38 41 -56 76 -33 26 17 30 35
14 66 -12 22 -59 26 -78 7z"/>
<path d="M3066 2707 c-22 -16 -18 -65 5 -80 47 -29 101 32 64 73 -21 23 -44
25 -69 7z"/>
<path d="M7287 2702 c-22 -24 -21 -45 3 -67 41 -37 102 17 73 64 -15 23 -56
25 -76 3z"/>
<path d="M3351 2511 c-16 -29 -14 -46 9 -66 41 -37 102 17 73 64 -16 25 -69
26 -82 2z"/>
<path d="M6988 2506 c-14 -31 -5 -53 27 -68 21 -9 28 -8 45 7 39 35 20 85 -32
85 -20 0 -32 -7 -40 -24z"/>
<path d="M3662 2358 c-28 -28 -2 -88 38 -88 11 0 27 11 36 25 24 36 6 75 -34
75 -15 0 -33 -5 -40 -12z"/>
<path d="M6680 2350 c-15 -28 -4 -59 26 -72 19 -9 28 -8 44 7 22 20 26 55 8
73 -20 20 -66 15 -78 -8z"/>
<path d="M6372 2234 c-41 -29 -23 -84 28 -84 32 0 50 17 50 46 0 20 -32 54
-50 54 -3 0 -16 -7 -28 -16z"/>
<path d="M3982 2228 c-33 -33 6 -96 52 -84 29 7 45 49 29 75 -13 20 -64 26
-81 9z"/>
<path d="M4320 2130 c-23 -23 -24 -33 -10 -61 12 -22 59 -26 78 -7 17 17 15
54 -4 72 -21 21 -40 20 -64 -4z"/>
<path d="M6036 2134 c-20 -19 -21 -58 -2 -73 25 -21 69 -9 80 21 17 50 -42 89
-78 52z"/>
<path d="M4656 2064 c-9 -8 -16 -22 -16 -30 0 -18 36 -54 54 -54 37 0 61 61
34 88 -17 17 -54 15 -72 -4z"/>
<path d="M5692 2068 c-33 -33 6 -96 52 -84 52 13 41 96 -12 96 -16 0 -33 -5
-40 -12z"/>
<path d="M5008 2039 c-26 -14 -23 -65 3 -79 52 -28 102 28 64 70 -20 22 -41
25 -67 9z"/>
<path d="M5344 2025 c-15 -23 -15 -27 0 -50 29 -44 86 -28 86 25 0 53 -57 69
-86 25z"/>
<path d="M4057 1144 c-4 -4 -7 -52 -7 -106 0 -98 0 -98 -20 -78 -38 38 -124
17 -148 -35 -7 -14 -12 -55 -12 -90 0 -58 3 -68 31 -100 25 -28 38 -35 68 -35
21 0 46 6 56 14 17 12 21 12 31 -3 29 -38 34 3 32 219 -3 201 -8 237 -31 214z
m-33 -215 c24 -19 26 -27 26 -89 0 -62 -2 -70 -26 -89 -59 -46 -114 -8 -122
83 -4 51 -2 57 26 86 36 35 60 38 96 9z"/>
<path d="M7497 1144 c-4 -4 -7 -52 -7 -106 0 -98 0 -98 -20 -78 -38 38 -124
17 -148 -35 -7 -14 -12 -55 -12 -90 0 -58 3 -68 31 -100 25 -28 38 -35 68 -35
21 0 46 6 56 14 17 12 21 12 31 -3 29 -38 34 3 32 219 -3 201 -8 237 -31 214z
m-33 -215 c24 -19 26 -27 26 -89 0 -62 -2 -70 -26 -89 -59 -46 -114 -8 -122
83 -4 51 -2 57 26 86 36 35 60 38 96 9z"/>
<path d="M8037 1144 c-4 -4 -7 -52 -7 -106 0 -98 0 -98 -20 -78 -38 38 -124
17 -148 -35 -7 -14 -12 -55 -12 -90 0 -58 3 -68 31 -100 25 -28 38 -35 68 -35
21 0 46 6 56 14 17 12 21 12 31 -3 29 -38 34 3 32 219 -3 201 -8 237 -31 214z
m-33 -215 c24 -19 26 -27 26 -89 0 -62 -2 -70 -26 -89 -59 -46 -114 -8 -122
83 -4 51 -2 57 26 86 36 35 60 38 96 9z"/>
<path d="M2140 1123 c-55 -20 -80 -80 -56 -137 13 -31 26 -41 83 -67 37 -16
76 -40 85 -52 23 -29 23 -79 -1 -108 -28 -35 -109 -34 -145 0 -21 19 -29 22
-38 13 -10 -10 -6 -18 15 -40 25 -24 35 -27 97 -27 80 0 106 17 120 79 17 75
-17 130 -100 162 -91 35 -117 91 -62 134 27 22 67 23 130 4 32 -9 29 24 -4 36
-27 11 -99 12 -124 3z"/>
<path d="M3100 1123 c-55 -20 -80 -80 -56 -137 13 -31 26 -41 83 -67 37 -16
76 -40 85 -52 23 -29 23 -79 -1 -108 -28 -35 -109 -34 -145 0 -21 19 -29 22
-38 13 -10 -10 -6 -18 15 -40 25 -24 35 -27 97 -27 80 0 106 17 120 79 17 75
-17 130 -100 162 -91 35 -117 91 -62 134 27 22 67 23 130 4 32 -9 29 24 -4 36
-27 11 -99 12 -124 3z"/>
<path d="M4670 915 c0 -183 2 -215 15 -215 12 0 15 28 17 173 l3 172 88 -172
c53 -106 93 -173 102 -173 13 0 15 32 15 215 0 183 -2 215 -15 215 -12 0 -15
-28 -17 -167 l-3 -168 -88 168 c-51 97 -94 167 -103 167 -12 0 -14 -35 -14
-215z"/>
<path d="M6120 916 c0 -183 2 -216 15 -216 11 0 15 19 17 88 l3 87 70 5 c39 3
80 11 92 18 51 28 56 153 9 201 -24 24 -35 26 -116 29 l-90 4 0 -216z m174
163 c22 -18 26 -28 26 -75 0 -77 -19 -94 -105 -94 l-65 0 0 95 0 95 59 0 c44
0 65 -5 85 -21z"/>
<path d="M3688 1092 c-26 -16 -38 -42 -20 -42 14 0 72 40 72 50 0 14 -20 11
-52 -8z"/>
<path d="M6614 1099 c-3 -6 0 -17 7 -25 18 -17 44 -2 36 20 -7 18 -33 21 -43
5z"/>
<path d="M7194 1099 c-3 -6 0 -17 7 -25 18 -17 44 -2 36 20 -7 18 -33 21 -43
5z"/>
<path d="M2370 873 c0 -87 4 -112 18 -129 55 -68 158 -55 191 24 7 16 11 65 9
118 -2 71 -6 89 -18 89 -12 0 -16 -20 -20 -103 -5 -94 -7 -106 -29 -123 -13
-10 -33 -19 -46 -19 -13 0 -33 9 -46 19 -22 17 -24 29 -29 122 -3 69 -9 104
-17 107 -10 3 -13 -22 -13 -105z"/>
<path d="M2678 969 c-34 -19 -19 -29 35 -23 44 5 55 3 70 -14 10 -11 19 -32
20 -48 2 -29 1 -29 -62 -35 -73 -7 -101 -29 -101 -80 0 -63 87 -93 143 -49 25
20 25 20 30 0 3 -11 10 -20 16 -20 7 0 11 37 11 111 0 109 0 111 -29 140 -24
23 -38 29 -73 29 -24 0 -51 -5 -60 -11z m132 -164 c0 -35 -42 -75 -77 -75 -45
0 -58 15 -54 61 1 22 38 38 89 38 39 1 42 -1 42 -24z"/>
<path d="M3348 969 c-34 -19 -19 -29 35 -23 44 5 55 3 70 -14 10 -11 19 -32
20 -48 2 -29 1 -29 -62 -35 -73 -7 -101 -29 -101 -80 0 -63 87 -93 143 -49 25
20 25 20 30 0 3 -11 10 -20 16 -20 7 0 11 37 11 111 0 109 0 111 -29 140 -24
23 -38 29 -73 29 -24 0 -51 -5 -60 -11z m132 -164 c0 -35 -42 -75 -77 -75 -45
0 -58 15 -54 61 1 22 38 38 89 38 39 1 42 -1 42 -24z"/>
<path d="M3590 873 c0 -87 4 -112 18 -129 55 -68 158 -55 191 24 7 16 11 65 9
118 -2 71 -6 89 -18 89 -12 0 -16 -20 -20 -103 -5 -94 -7 -106 -29 -123 -13
-10 -33 -19 -46 -19 -13 0 -33 9 -46 19 -22 17 -24 29 -29 122 -3 69 -9 104
-17 107 -10 3 -13 -22 -13 -105z"/>
<path d="M4194 946 c-32 -32 -34 -37 -34 -106 0 -69 2 -74 34 -106 29 -29 41
-34 80 -34 53 0 96 17 96 38 0 10 -6 12 -22 7 -77 -24 -126 -14 -147 32 -23
49 -18 53 73 53 97 0 112 10 102 64 -9 49 -56 86 -108 86 -32 0 -47 -7 -74
-34z m126 -16 c11 -11 20 -31 20 -45 0 -24 -2 -25 -76 -25 l-76 0 6 28 c14 58
86 82 126 42z"/>
<path d="M5024 946 c-32 -32 -34 -37 -34 -106 0 -69 2 -74 34 -106 27 -27 42
-34 74 -34 77 0 117 59 110 161 -4 54 -8 66 -36 90 -47 43 -103 40 -148 -5z
m120 -17 c24 -19 26 -27 26 -89 0 -62 -2 -70 -26 -89 -62 -48 -124 -3 -124 89
0 92 62 137 124 89z"/>
<path d="M5296 959 c-19 -15 -26 -30 -26 -54 0 -38 14 -52 84 -80 54 -21 70
-51 46 -81 -15 -17 -69 -18 -105 -2 -34 15 -45 1 -16 -23 28 -23 107 -26 138
-4 54 38 31 117 -40 136 -71 19 -94 51 -60 84 13 14 28 16 65 12 51 -6 71 5
39 22 -33 18 -96 13 -125 -10z"/>
<path d="M5526 959 c-19 -15 -26 -30 -26 -54 0 -38 14 -52 84 -80 54 -21 70
-51 46 -81 -15 -17 -69 -18 -105 -2 -34 15 -45 1 -16 -23 26 -21 99 -26 132
-8 31 16 41 54 25 94 -12 27 -23 36 -58 45 -72 20 -95 52 -61 85 13 14 28 16
65 12 51 -6 71 5 39 22 -33 18 -96 13 -125 -10z"/>
<path d="M5748 969 c-34 -19 -19 -29 35 -23 44 5 55 3 70 -14 10 -11 19 -32
20 -48 2 -29 1 -29 -62 -35 -73 -7 -101 -29 -101 -80 0 -63 87 -93 143 -49 25
20 25 20 30 0 3 -11 10 -20 16 -20 7 0 11 37 11 111 0 109 0 111 -29 140 -24
23 -38 29 -73 29 -24 0 -51 -5 -60 -11z m132 -164 c0 -35 -42 -75 -77 -75 -45
0 -58 15 -54 61 1 22 38 38 89 38 39 1 42 -1 42 -24z"/>
<path d="M6422 843 c2 -90 7 -138 14 -140 8 -3 13 28 16 97 4 112 17 136 79
149 18 3 34 12 37 19 7 21 -63 14 -92 -9 l-26 -20 0 20 c0 12 -6 21 -15 21
-13 0 -15 -20 -13 -137z"/>
<path d="M6622 843 c2 -98 6 -138 16 -141 9 -3 12 29 12 137 0 120 -2 141 -15
141 -13 0 -15 -20 -13 -137z"/>
<path d="M6754 946 c-32 -32 -34 -37 -34 -106 0 -69 2 -74 34 -106 27 -27 42
-34 74 -34 77 0 117 59 110 161 -4 54 -8 66 -36 90 -47 43 -103 40 -148 -5z
m120 -17 c24 -19 26 -27 26 -89 0 -62 -2 -70 -26 -89 -62 -48 -124 -3 -124 89
0 92 62 137 124 89z"/>
<path d="M7012 843 c2 -90 7 -138 14 -140 8 -3 13 28 16 97 4 112 17 136 79
149 18 3 34 12 37 19 7 21 -63 14 -92 -9 l-26 -20 0 20 c0 12 -6 21 -15 21
-13 0 -15 -20 -13 -137z"/>
<path d="M7202 843 c2 -98 6 -138 16 -141 9 -3 12 29 12 137 0 120 -2 141 -15
141 -13 0 -15 -20 -13 -137z"/>
<path d="M7618 969 c-34 -19 -19 -29 35 -23 44 5 55 3 70 -14 10 -11 19 -32
20 -48 2 -29 1 -29 -62 -35 -73 -7 -101 -29 -101 -80 0 -63 87 -93 143 -49 25
20 25 20 30 0 3 -11 10 -20 16 -20 7 0 11 37 11 111 0 109 0 111 -29 140 -24
23 -38 29 -73 29 -24 0 -51 -5 -60 -11z m132 -164 c0 -35 -42 -75 -77 -75 -45
0 -58 15 -54 61 1 22 38 38 89 38 39 1 42 -1 42 -24z"/>
<path d="M8174 946 c-32 -32 -34 -37 -34 -106 0 -69 2 -74 34 -106 29 -29 41
-34 80 -34 53 0 96 17 96 38 0 10 -6 12 -22 7 -77 -24 -126 -14 -147 32 -23
49 -18 53 73 53 97 0 112 10 102 64 -9 49 -56 86 -108 86 -32 0 -47 -7 -74
-34z m126 -16 c11 -11 20 -31 20 -45 0 -24 -2 -25 -76 -25 l-76 0 6 28 c14 58
86 82 126 42z"/>
<path d="M4437 743 c-9 -16 -4 -94 6 -90 17 5 36 70 24 85 -11 14 -24 16 -30
5z"/>
</g>
</svg>
